<svg xmlns="http://www.w3.org/2000/svg" viewBox="0 0 1271.8933333333332 715.44"><rect width="1271.8933333333332" height="715.44" fill="#d5d5d5" id="bg" class="bg"/><g><g transform="translate(0.00,&#10;                                105.99) rotate(180, 52.99555555555555, 52.99555555555555)"><svg xmlns:dc="http://purl.org/dc/elements/1.1/" xmlns:cc="http://creativecommons.org/ns#" xmlns:rdf="http://www.w3.org/1999/02/22-rdf-syntax-ns#" xmlns:svg="http://www.w3.org/2000/svg" xmlns="http://www.w3.org/2000/svg" xmlns:sodipodi="http://sodipodi.sourceforge.net/DTD/sodipodi-0.dtd" xmlns:inkscape="http://www.inkscape.org/namespaces/inkscape" width="105.9911111111111" height="105.9911111111111" viewBox="0 0 595.276 841.89" fill-rule="evenodd" id="svg3021" version="1.1" inkscape:version="0.48.4 r9939" sodipodi:docname="PawPrint4.ai">
  <metadata id="metadata3039">
    <rdf>
      <work rdf:about="">
        <format>image/svg+xml</format>
        <type rdf:resource="http://purl.org/dc/dcmitype/StillImage"/>
        <title/>
      </work>
    </rdf>
  </metadata>
  <defs id="defs3037"/>
  <namedview pagecolor="#ffffff" bordercolor="#666666" borderopacity="1" objecttolerance="10" gridtolerance="10" guidetolerance="10" inkscape:pageopacity="0" inkscape:pageshadow="2" inkscape:window-width="1024" inkscape:window-height="708" id="namedview3035" showgrid="false" inkscape:zoom="0.46846973" inkscape:cx="372.04749" inkscape:cy="433.62355" inkscape:window-x="-4" inkscape:window-y="-4" inkscape:window-maximized="1" inkscape:current-layer="svg3021"/>
  <g id="g3023" transform="translate(269.81467,-650.62904)">
    <path d="m -126.267,1038.85 c 22.737,50.44 15.792,102.75 -15.51,116.87 -31.303,14.12 -75.11,-15.31 -97.845,-65.74 -22.737,-50.43 -15.793,-102.745 15.51,-116.863 31.303,-14.114 75.108,15.317 97.845,65.733 z" id="path3025" inkscape:connector-curvature="0" style="fill: rgb(44, 44, 43); stroke: none;"/>
    <path d="m 183.155,1038.85 c -22.738,50.44 -15.793,102.75 15.512,116.87 31.303,14.12 75.106,-15.31 97.846,-65.74 22.734,-50.43 15.789,-102.745 -15.513,-116.863 -31.301,-14.114 -75.108,15.317 -97.845,65.733 z" id="path3027" inkscape:connector-curvature="0" style="fill: rgb(44, 44, 43); stroke: none;"/>
    <path d="m 6.7856,937.757 c 11.6548,54.069 -6.1108,103.763 -39.6787,111.003 -33.5654,7.23 -70.2249,-30.74 -81.8779,-84.804 -11.653,-54.068 6.112,-103.764 39.6792,-110.997 33.5669,-7.236 70.2246,30.729 81.8774,84.798 z" id="path3029" inkscape:connector-curvature="0" style="fill: rgb(44, 44, 43); stroke: none;"/>
    <path d="m 49.2676,937.803 c -11.6446,54.068 6.1084,103.767 39.6738,110.997 33.5676,7.24 70.2256,-30.73 81.8776,-84.797 11.654,-54.069 -6.109,-103.765 -39.678,-110.998 -33.5678,-7.234 -70.225,30.729 -81.8734,84.798 z" id="path3031" inkscape:connector-curvature="0" style="fill: rgb(44, 44, 43); stroke: none;"/>
    <path d="m -35.2275,1118.5 c -8.1924,14.15 -46.1563,60.99 -72.4145,76.97 -26.256,15.98 -58.792,39.38 -53.332,93.11 5.457,53.74 60.575,76.74 96.8597,74.7 36.2867,-2.03 104.6993,-8.71 153.543,-1.94 48.8413,6.77 110.4863,1.64 124.9223,-49.81 14.436,-51.45 -17.85,-84.23 -43.044,-102.83 -25.193,-18.59 -67.265,-74.2 -80.2269,-99.73 -12.96,-25.52 -78.9268,-72.26 -126.3076,9.53 z" id="path3033" inkscape:connector-curvature="0" style="fill: rgb(44, 44, 43); stroke: none;"/>
  </g>
</svg></g><g transform="translate(105.99,&#10;                                211.98) rotate(90, 52.99555555555555, 52.99555555555555)"><svg xmlns:dc="http://purl.org/dc/elements/1.1/" xmlns:cc="http://creativecommons.org/ns#" xmlns:rdf="http://www.w3.org/1999/02/22-rdf-syntax-ns#" xmlns:svg="http://www.w3.org/2000/svg" xmlns="http://www.w3.org/2000/svg" xmlns:sodipodi="http://sodipodi.sourceforge.net/DTD/sodipodi-0.dtd" xmlns:inkscape="http://www.inkscape.org/namespaces/inkscape" width="105.9911111111111" height="105.9911111111111" viewBox="0 0 595.276 841.89" fill-rule="evenodd" id="svg3021" version="1.1" inkscape:version="0.48.4 r9939" sodipodi:docname="PawPrint4.ai">
  <metadata id="metadata3039">
    <rdf>
      <work rdf:about="">
        <format>image/svg+xml</format>
        <type rdf:resource="http://purl.org/dc/dcmitype/StillImage"/>
        <title/>
      </work>
    </rdf>
  </metadata>
  <defs id="defs3037"/>
  <namedview pagecolor="#ffffff" bordercolor="#666666" borderopacity="1" objecttolerance="10" gridtolerance="10" guidetolerance="10" inkscape:pageopacity="0" inkscape:pageshadow="2" inkscape:window-width="1024" inkscape:window-height="708" id="namedview3035" showgrid="false" inkscape:zoom="0.46846973" inkscape:cx="372.04749" inkscape:cy="433.62355" inkscape:window-x="-4" inkscape:window-y="-4" inkscape:window-maximized="1" inkscape:current-layer="svg3021"/>
  <g id="g3023" transform="translate(269.81467,-650.62904)">
    <path d="m -126.267,1038.85 c 22.737,50.44 15.792,102.75 -15.51,116.87 -31.303,14.12 -75.11,-15.31 -97.845,-65.74 -22.737,-50.43 -15.793,-102.745 15.51,-116.863 31.303,-14.114 75.108,15.317 97.845,65.733 z" id="path3025" inkscape:connector-curvature="0" style="fill: rgb(44, 44, 43); stroke: none;"/>
    <path d="m 183.155,1038.85 c -22.738,50.44 -15.793,102.75 15.512,116.87 31.303,14.12 75.106,-15.31 97.846,-65.74 22.734,-50.43 15.789,-102.745 -15.513,-116.863 -31.301,-14.114 -75.108,15.317 -97.845,65.733 z" id="path3027" inkscape:connector-curvature="0" style="fill: rgb(44, 44, 43); stroke: none;"/>
    <path d="m 6.7856,937.757 c 11.6548,54.069 -6.1108,103.763 -39.6787,111.003 -33.5654,7.23 -70.2249,-30.74 -81.8779,-84.804 -11.653,-54.068 6.112,-103.764 39.6792,-110.997 33.5669,-7.236 70.2246,30.729 81.8774,84.798 z" id="path3029" inkscape:connector-curvature="0" style="fill: rgb(44, 44, 43); stroke: none;"/>
    <path d="m 49.2676,937.803 c -11.6446,54.068 6.1084,103.767 39.6738,110.997 33.5676,7.24 70.2256,-30.73 81.8776,-84.797 11.654,-54.069 -6.109,-103.765 -39.678,-110.998 -33.5678,-7.234 -70.225,30.729 -81.8734,84.798 z" id="path3031" inkscape:connector-curvature="0" style="fill: rgb(44, 44, 43); stroke: none;"/>
    <path d="m -35.2275,1118.5 c -8.1924,14.15 -46.1563,60.99 -72.4145,76.97 -26.256,15.98 -58.792,39.38 -53.332,93.11 5.457,53.74 60.575,76.74 96.8597,74.7 36.2867,-2.03 104.6993,-8.71 153.543,-1.94 48.8413,6.77 110.4863,1.64 124.9223,-49.81 14.436,-51.45 -17.85,-84.23 -43.044,-102.83 -25.193,-18.59 -67.265,-74.2 -80.2269,-99.73 -12.96,-25.52 -78.9268,-72.26 -126.3076,9.53 z" id="path3033" inkscape:connector-curvature="0" style="fill: rgb(44, 44, 43); stroke: none;"/>
  </g>
</svg></g><g transform="translate(211.98,&#10;                                211.98) rotate(90, 52.99555555555555, 52.99555555555555)"><svg xmlns="http://www.w3.org/2000/svg" id="Layer_1" data-name="Layer 1" viewBox="0 0 100 100" width="105.9911111111111" height="105.9911111111111"><path d="M38.825,3c0,11.749,22.35,11.749,22.35,23.5s-22.35,11.745-22.35,23.49,22.35,11.753,22.35,23.506S38.825,85.247,38.825,97" fill="none" stroke="#3960d4" stroke-linecap="round" stroke-linejoin="round" stroke-width="6"/></svg></g><g transform="translate(317.97,&#10;                                211.98) rotate(270, 52.99555555555555, 52.99555555555555)"><svg xmlns:dc="http://purl.org/dc/elements/1.1/" xmlns:cc="http://creativecommons.org/ns#" xmlns:rdf="http://www.w3.org/1999/02/22-rdf-syntax-ns#" xmlns:svg="http://www.w3.org/2000/svg" xmlns="http://www.w3.org/2000/svg" xmlns:sodipodi="http://sodipodi.sourceforge.net/DTD/sodipodi-0.dtd" xmlns:inkscape="http://www.inkscape.org/namespaces/inkscape" width="105.9911111111111" height="105.9911111111111" viewBox="0 0 595.276 841.89" fill-rule="evenodd" id="svg3021" version="1.1" inkscape:version="0.48.4 r9939" sodipodi:docname="PawPrint4.ai">
  <metadata id="metadata3039">
    <rdf>
      <work rdf:about="">
        <format>image/svg+xml</format>
        <type rdf:resource="http://purl.org/dc/dcmitype/StillImage"/>
        <title/>
      </work>
    </rdf>
  </metadata>
  <defs id="defs3037"/>
  <namedview pagecolor="#ffffff" bordercolor="#666666" borderopacity="1" objecttolerance="10" gridtolerance="10" guidetolerance="10" inkscape:pageopacity="0" inkscape:pageshadow="2" inkscape:window-width="1024" inkscape:window-height="708" id="namedview3035" showgrid="false" inkscape:zoom="0.46846973" inkscape:cx="372.04749" inkscape:cy="433.62355" inkscape:window-x="-4" inkscape:window-y="-4" inkscape:window-maximized="1" inkscape:current-layer="svg3021"/>
  <g id="g3023" transform="translate(269.81467,-650.62904)">
    <path d="m -126.267,1038.85 c 22.737,50.44 15.792,102.75 -15.51,116.87 -31.303,14.12 -75.11,-15.31 -97.845,-65.74 -22.737,-50.43 -15.793,-102.745 15.51,-116.863 31.303,-14.114 75.108,15.317 97.845,65.733 z" id="path3025" inkscape:connector-curvature="0" style="fill: rgb(44, 44, 43); stroke: none;"/>
    <path d="m 183.155,1038.85 c -22.738,50.44 -15.793,102.75 15.512,116.87 31.303,14.12 75.106,-15.31 97.846,-65.74 22.734,-50.43 15.789,-102.745 -15.513,-116.863 -31.301,-14.114 -75.108,15.317 -97.845,65.733 z" id="path3027" inkscape:connector-curvature="0" style="fill: rgb(44, 44, 43); stroke: none;"/>
    <path d="m 6.7856,937.757 c 11.6548,54.069 -6.1108,103.763 -39.6787,111.003 -33.5654,7.23 -70.2249,-30.74 -81.8779,-84.804 -11.653,-54.068 6.112,-103.764 39.6792,-110.997 33.5669,-7.236 70.2246,30.729 81.8774,84.798 z" id="path3029" inkscape:connector-curvature="0" style="fill: rgb(44, 44, 43); stroke: none;"/>
    <path d="m 49.2676,937.803 c -11.6446,54.068 6.1084,103.767 39.6738,110.997 33.5676,7.24 70.2256,-30.73 81.8776,-84.797 11.654,-54.069 -6.109,-103.765 -39.678,-110.998 -33.5678,-7.234 -70.225,30.729 -81.8734,84.798 z" id="path3031" inkscape:connector-curvature="0" style="fill: rgb(44, 44, 43); stroke: none;"/>
    <path d="m -35.2275,1118.5 c -8.1924,14.15 -46.1563,60.99 -72.4145,76.97 -26.256,15.98 -58.792,39.38 -53.332,93.11 5.457,53.74 60.575,76.74 96.8597,74.7 36.2867,-2.03 104.6993,-8.71 153.543,-1.94 48.8413,6.77 110.4863,1.64 124.9223,-49.81 14.436,-51.45 -17.85,-84.23 -43.044,-102.83 -25.193,-18.59 -67.265,-74.2 -80.2269,-99.73 -12.96,-25.52 -78.9268,-72.26 -126.3076,9.53 z" id="path3033" inkscape:connector-curvature="0" style="fill: rgb(44, 44, 43); stroke: none;"/>
  </g>
</svg></g><g transform="translate(529.96,&#10;                                0.00) rotate(0, 52.99555555555555, 52.99555555555555)"><svg xmlns="http://www.w3.org/2000/svg" id="Layer_1" data-name="Layer 1" viewBox="0 0 100 100" width="105.9911111111111" height="105.9911111111111"><path d="M100,100A50,50,0,0,0,0,100Z" fill="#6F9535"/></svg></g><g transform="translate(423.96,&#10;                                105.99) rotate(0, 52.99555555555555, 52.99555555555555)"><svg xmlns="http://www.w3.org/2000/svg" id="Layer_1" data-name="Layer 1" viewBox="0 0 100 100" width="105.9911111111111" height="105.9911111111111"><path d="M38.825,3c0,11.749,22.35,11.749,22.35,23.5s-22.35,11.745-22.35,23.49,22.35,11.753,22.35,23.506S38.825,85.247,38.825,97" fill="none" stroke="#3960d4" stroke-linecap="round" stroke-linejoin="round" stroke-width="6"/></svg></g><g transform="translate(529.96,&#10;                                211.98) rotate(90, 52.99555555555555, 52.99555555555555)"><svg xmlns:dc="http://purl.org/dc/elements/1.1/" xmlns:cc="http://creativecommons.org/ns#" xmlns:rdf="http://www.w3.org/1999/02/22-rdf-syntax-ns#" xmlns:svg="http://www.w3.org/2000/svg" xmlns="http://www.w3.org/2000/svg" xmlns:sodipodi="http://sodipodi.sourceforge.net/DTD/sodipodi-0.dtd" xmlns:inkscape="http://www.inkscape.org/namespaces/inkscape" width="105.9911111111111" height="105.9911111111111" viewBox="0 0 595.276 841.89" fill-rule="evenodd" id="svg3021" version="1.1" inkscape:version="0.48.4 r9939" sodipodi:docname="PawPrint4.ai">
  <metadata id="metadata3039">
    <rdf>
      <work rdf:about="">
        <format>image/svg+xml</format>
        <type rdf:resource="http://purl.org/dc/dcmitype/StillImage"/>
        <title/>
      </work>
    </rdf>
  </metadata>
  <defs id="defs3037"/>
  <namedview pagecolor="#ffffff" bordercolor="#666666" borderopacity="1" objecttolerance="10" gridtolerance="10" guidetolerance="10" inkscape:pageopacity="0" inkscape:pageshadow="2" inkscape:window-width="1024" inkscape:window-height="708" id="namedview3035" showgrid="false" inkscape:zoom="0.46846973" inkscape:cx="372.04749" inkscape:cy="433.62355" inkscape:window-x="-4" inkscape:window-y="-4" inkscape:window-maximized="1" inkscape:current-layer="svg3021"/>
  <g id="g3023" transform="translate(269.81467,-650.62904)">
    <path d="m -126.267,1038.85 c 22.737,50.44 15.792,102.75 -15.51,116.87 -31.303,14.12 -75.11,-15.31 -97.845,-65.74 -22.737,-50.43 -15.793,-102.745 15.51,-116.863 31.303,-14.114 75.108,15.317 97.845,65.733 z" id="path3025" inkscape:connector-curvature="0" style="fill: rgb(44, 44, 43); stroke: none;"/>
    <path d="m 183.155,1038.85 c -22.738,50.44 -15.793,102.75 15.512,116.87 31.303,14.12 75.106,-15.31 97.846,-65.74 22.734,-50.43 15.789,-102.745 -15.513,-116.863 -31.301,-14.114 -75.108,15.317 -97.845,65.733 z" id="path3027" inkscape:connector-curvature="0" style="fill: rgb(44, 44, 43); stroke: none;"/>
    <path d="m 6.7856,937.757 c 11.6548,54.069 -6.1108,103.763 -39.6787,111.003 -33.5654,7.23 -70.2249,-30.74 -81.8779,-84.804 -11.653,-54.068 6.112,-103.764 39.6792,-110.997 33.5669,-7.236 70.2246,30.729 81.8774,84.798 z" id="path3029" inkscape:connector-curvature="0" style="fill: rgb(44, 44, 43); stroke: none;"/>
    <path d="m 49.2676,937.803 c -11.6446,54.068 6.1084,103.767 39.6738,110.997 33.5676,7.24 70.2256,-30.73 81.8776,-84.797 11.654,-54.069 -6.109,-103.765 -39.678,-110.998 -33.5678,-7.234 -70.225,30.729 -81.8734,84.798 z" id="path3031" inkscape:connector-curvature="0" style="fill: rgb(44, 44, 43); stroke: none;"/>
    <path d="m -35.2275,1118.5 c -8.1924,14.15 -46.1563,60.99 -72.4145,76.97 -26.256,15.98 -58.792,39.38 -53.332,93.11 5.457,53.74 60.575,76.74 96.8597,74.7 36.2867,-2.03 104.6993,-8.71 153.543,-1.94 48.8413,6.77 110.4863,1.64 124.9223,-49.81 14.436,-51.45 -17.85,-84.23 -43.044,-102.83 -25.193,-18.59 -67.265,-74.2 -80.2269,-99.73 -12.96,-25.52 -78.9268,-72.26 -126.3076,9.53 z" id="path3033" inkscape:connector-curvature="0" style="fill: rgb(44, 44, 43); stroke: none;"/>
  </g>
</svg></g><g transform="translate(741.94,&#10;                                0.00) rotate(270, 52.99555555555555, 52.99555555555555)"><svg xmlns="http://www.w3.org/2000/svg" id="Layer_1" data-name="Layer 1" viewBox="0 0 100 100" width="105.9911111111111" height="105.9911111111111"><path d="M100,100A50,50,0,0,0,0,100Z" fill="#6F9535"/></svg></g><g transform="translate(741.94,&#10;                                211.98) rotate(0, 52.99555555555555, 52.99555555555555)"><svg xmlns:dc="http://purl.org/dc/elements/1.1/" xmlns:cc="http://creativecommons.org/ns#" xmlns:rdf="http://www.w3.org/1999/02/22-rdf-syntax-ns#" xmlns:svg="http://www.w3.org/2000/svg" xmlns="http://www.w3.org/2000/svg" xmlns:sodipodi="http://sodipodi.sourceforge.net/DTD/sodipodi-0.dtd" xmlns:inkscape="http://www.inkscape.org/namespaces/inkscape" width="105.9911111111111" height="105.9911111111111" viewBox="0 0 595.276 841.89" fill-rule="evenodd" id="svg3021" version="1.1" inkscape:version="0.48.4 r9939" sodipodi:docname="PawPrint4.ai">
  <metadata id="metadata3039">
    <rdf>
      <work rdf:about="">
        <format>image/svg+xml</format>
        <type rdf:resource="http://purl.org/dc/dcmitype/StillImage"/>
        <title/>
      </work>
    </rdf>
  </metadata>
  <defs id="defs3037"/>
  <namedview pagecolor="#ffffff" bordercolor="#666666" borderopacity="1" objecttolerance="10" gridtolerance="10" guidetolerance="10" inkscape:pageopacity="0" inkscape:pageshadow="2" inkscape:window-width="1024" inkscape:window-height="708" id="namedview3035" showgrid="false" inkscape:zoom="0.46846973" inkscape:cx="372.04749" inkscape:cy="433.62355" inkscape:window-x="-4" inkscape:window-y="-4" inkscape:window-maximized="1" inkscape:current-layer="svg3021"/>
  <g id="g3023" transform="translate(269.81467,-650.62904)">
    <path d="m -126.267,1038.85 c 22.737,50.44 15.792,102.75 -15.51,116.87 -31.303,14.12 -75.11,-15.31 -97.845,-65.74 -22.737,-50.43 -15.793,-102.745 15.51,-116.863 31.303,-14.114 75.108,15.317 97.845,65.733 z" id="path3025" inkscape:connector-curvature="0" style="fill: rgb(44, 44, 43); stroke: none;"/>
    <path d="m 183.155,1038.85 c -22.738,50.44 -15.793,102.75 15.512,116.87 31.303,14.12 75.106,-15.31 97.846,-65.74 22.734,-50.43 15.789,-102.745 -15.513,-116.863 -31.301,-14.114 -75.108,15.317 -97.845,65.733 z" id="path3027" inkscape:connector-curvature="0" style="fill: rgb(44, 44, 43); stroke: none;"/>
    <path d="m 6.7856,937.757 c 11.6548,54.069 -6.1108,103.763 -39.6787,111.003 -33.5654,7.23 -70.2249,-30.74 -81.8779,-84.804 -11.653,-54.068 6.112,-103.764 39.6792,-110.997 33.5669,-7.236 70.2246,30.729 81.8774,84.798 z" id="path3029" inkscape:connector-curvature="0" style="fill: rgb(44, 44, 43); stroke: none;"/>
    <path d="m 49.2676,937.803 c -11.6446,54.068 6.1084,103.767 39.6738,110.997 33.5676,7.24 70.2256,-30.73 81.8776,-84.797 11.654,-54.069 -6.109,-103.765 -39.678,-110.998 -33.5678,-7.234 -70.225,30.729 -81.8734,84.798 z" id="path3031" inkscape:connector-curvature="0" style="fill: rgb(44, 44, 43); stroke: none;"/>
    <path d="m -35.2275,1118.5 c -8.1924,14.15 -46.1563,60.99 -72.4145,76.97 -26.256,15.98 -58.792,39.38 -53.332,93.11 5.457,53.74 60.575,76.74 96.8597,74.7 36.2867,-2.03 104.6993,-8.71 153.543,-1.94 48.8413,6.77 110.4863,1.64 124.9223,-49.81 14.436,-51.45 -17.85,-84.23 -43.044,-102.83 -25.193,-18.59 -67.265,-74.2 -80.2269,-99.73 -12.96,-25.52 -78.9268,-72.26 -126.3076,9.53 z" id="path3033" inkscape:connector-curvature="0" style="fill: rgb(44, 44, 43); stroke: none;"/>
  </g>
</svg></g><g transform="translate(953.92,&#10;                                0.00) rotate(180, 52.99555555555555, 52.99555555555555)"><svg xmlns="http://www.w3.org/2000/svg" id="Layer_1" data-name="Layer 1" viewBox="0 0 100 100" width="105.9911111111111" height="105.9911111111111"><path d="M38.825,3c0,11.749,22.35,11.749,22.35,23.5s-22.35,11.745-22.35,23.49,22.35,11.753,22.35,23.506S38.825,85.247,38.825,97" fill="none" stroke="#3960d4" stroke-linecap="round" stroke-linejoin="round" stroke-width="6"/></svg></g><g transform="translate(847.93,&#10;                                105.99) rotate(180, 52.99555555555555, 52.99555555555555)"><svg xmlns="http://www.w3.org/2000/svg" id="Layer_1" data-name="Layer 1" viewBox="0 0 100 100" width="105.9911111111111" height="105.9911111111111"><path d="M38.825,3c0,11.749,22.35,11.749,22.35,23.5s-22.35,11.745-22.35,23.49,22.35,11.753,22.35,23.506S38.825,85.247,38.825,97" fill="none" stroke="#3960d4" stroke-linecap="round" stroke-linejoin="round" stroke-width="6"/></svg></g><g transform="translate(1059.91,&#10;                                211.98) rotate(0, 52.99555555555555, 52.99555555555555)"><svg xmlns="http://www.w3.org/2000/svg" id="Layer_1" data-name="Layer 1" viewBox="0 0 100 100" width="105.9911111111111" height="105.9911111111111"><path d="M50,100h0A50,50,0,0,1,0,50V0H100V50A50,50,0,0,1,50,100Z" fill="#D5D5D5"/></svg></g><g transform="translate(1165.90,&#10;                                211.98) rotate(0, 52.99555555555555, 52.99555555555555)"><svg xmlns:dc="http://purl.org/dc/elements/1.1/" xmlns:cc="http://creativecommons.org/ns#" xmlns:rdf="http://www.w3.org/1999/02/22-rdf-syntax-ns#" xmlns:svg="http://www.w3.org/2000/svg" xmlns="http://www.w3.org/2000/svg" xmlns:sodipodi="http://sodipodi.sourceforge.net/DTD/sodipodi-0.dtd" xmlns:inkscape="http://www.inkscape.org/namespaces/inkscape" width="105.9911111111111" height="105.9911111111111" viewBox="0 0 595.276 841.89" fill-rule="evenodd" id="svg3021" version="1.1" inkscape:version="0.48.4 r9939" sodipodi:docname="PawPrint4.ai">
  <metadata id="metadata3039">
    <rdf>
      <work rdf:about="">
        <format>image/svg+xml</format>
        <type rdf:resource="http://purl.org/dc/dcmitype/StillImage"/>
        <title/>
      </work>
    </rdf>
  </metadata>
  <defs id="defs3037"/>
  <namedview pagecolor="#ffffff" bordercolor="#666666" borderopacity="1" objecttolerance="10" gridtolerance="10" guidetolerance="10" inkscape:pageopacity="0" inkscape:pageshadow="2" inkscape:window-width="1024" inkscape:window-height="708" id="namedview3035" showgrid="false" inkscape:zoom="0.46846973" inkscape:cx="372.04749" inkscape:cy="433.62355" inkscape:window-x="-4" inkscape:window-y="-4" inkscape:window-maximized="1" inkscape:current-layer="svg3021"/>
  <g id="g3023" transform="translate(269.81467,-650.62904)">
    <path d="m -126.267,1038.85 c 22.737,50.44 15.792,102.75 -15.51,116.87 -31.303,14.12 -75.11,-15.31 -97.845,-65.74 -22.737,-50.43 -15.793,-102.745 15.51,-116.863 31.303,-14.114 75.108,15.317 97.845,65.733 z" id="path3025" inkscape:connector-curvature="0" style="fill: rgb(44, 44, 43); stroke: none;"/>
    <path d="m 183.155,1038.85 c -22.738,50.44 -15.793,102.75 15.512,116.87 31.303,14.12 75.106,-15.31 97.846,-65.74 22.734,-50.43 15.789,-102.745 -15.513,-116.863 -31.301,-14.114 -75.108,15.317 -97.845,65.733 z" id="path3027" inkscape:connector-curvature="0" style="fill: rgb(44, 44, 43); stroke: none;"/>
    <path d="m 6.7856,937.757 c 11.6548,54.069 -6.1108,103.763 -39.6787,111.003 -33.5654,7.23 -70.2249,-30.74 -81.8779,-84.804 -11.653,-54.068 6.112,-103.764 39.6792,-110.997 33.5669,-7.236 70.2246,30.729 81.8774,84.798 z" id="path3029" inkscape:connector-curvature="0" style="fill: rgb(44, 44, 43); stroke: none;"/>
    <path d="m 49.2676,937.803 c -11.6446,54.068 6.1084,103.767 39.6738,110.997 33.5676,7.24 70.2256,-30.73 81.8776,-84.797 11.654,-54.069 -6.109,-103.765 -39.678,-110.998 -33.5678,-7.234 -70.225,30.729 -81.8734,84.798 z" id="path3031" inkscape:connector-curvature="0" style="fill: rgb(44, 44, 43); stroke: none;"/>
    <path d="m -35.2275,1118.5 c -8.1924,14.15 -46.1563,60.99 -72.4145,76.97 -26.256,15.98 -58.792,39.38 -53.332,93.11 5.457,53.74 60.575,76.74 96.8597,74.7 36.2867,-2.03 104.6993,-8.71 153.543,-1.94 48.8413,6.77 110.4863,1.64 124.9223,-49.81 14.436,-51.45 -17.85,-84.23 -43.044,-102.83 -25.193,-18.59 -67.265,-74.2 -80.2269,-99.73 -12.96,-25.52 -78.9268,-72.26 -126.3076,9.53 z" id="path3033" inkscape:connector-curvature="0" style="fill: rgb(44, 44, 43); stroke: none;"/>
  </g>
</svg></g></g><g><g transform="translate(105.99,&#10;                                317.97) rotate(270, 52.99555555555555, 52.99555555555555)"><svg xmlns="http://www.w3.org/2000/svg" id="Layer_1" data-name="Layer 1" viewBox="0 0 100 100" width="105.9911111111111" height="105.9911111111111"><path d="M100,100A50,50,0,0,0,0,100Z" fill="#6F9535"/></svg></g><g transform="translate(0.00,&#10;                                423.96) rotate(0, 52.99555555555555, 52.99555555555555)"><svg xmlns:dc="http://purl.org/dc/elements/1.1/" xmlns:cc="http://creativecommons.org/ns#" xmlns:rdf="http://www.w3.org/1999/02/22-rdf-syntax-ns#" xmlns:svg="http://www.w3.org/2000/svg" xmlns="http://www.w3.org/2000/svg" xmlns:sodipodi="http://sodipodi.sourceforge.net/DTD/sodipodi-0.dtd" xmlns:inkscape="http://www.inkscape.org/namespaces/inkscape" width="105.9911111111111" height="105.9911111111111" viewBox="0 0 595.276 841.89" fill-rule="evenodd" id="svg3021" version="1.1" inkscape:version="0.48.4 r9939" sodipodi:docname="PawPrint4.ai">
  <metadata id="metadata3039">
    <rdf>
      <work rdf:about="">
        <format>image/svg+xml</format>
        <type rdf:resource="http://purl.org/dc/dcmitype/StillImage"/>
        <title/>
      </work>
    </rdf>
  </metadata>
  <defs id="defs3037"/>
  <namedview pagecolor="#ffffff" bordercolor="#666666" borderopacity="1" objecttolerance="10" gridtolerance="10" guidetolerance="10" inkscape:pageopacity="0" inkscape:pageshadow="2" inkscape:window-width="1024" inkscape:window-height="708" id="namedview3035" showgrid="false" inkscape:zoom="0.46846973" inkscape:cx="372.04749" inkscape:cy="433.62355" inkscape:window-x="-4" inkscape:window-y="-4" inkscape:window-maximized="1" inkscape:current-layer="svg3021"/>
  <g id="g3023" transform="translate(269.81467,-650.62904)">
    <path d="m -126.267,1038.85 c 22.737,50.44 15.792,102.75 -15.51,116.87 -31.303,14.12 -75.11,-15.31 -97.845,-65.74 -22.737,-50.43 -15.793,-102.745 15.51,-116.863 31.303,-14.114 75.108,15.317 97.845,65.733 z" id="path3025" inkscape:connector-curvature="0" style="fill: rgb(44, 44, 43); stroke: none;"/>
    <path d="m 183.155,1038.85 c -22.738,50.44 -15.793,102.75 15.512,116.87 31.303,14.12 75.106,-15.31 97.846,-65.74 22.734,-50.43 15.789,-102.745 -15.513,-116.863 -31.301,-14.114 -75.108,15.317 -97.845,65.733 z" id="path3027" inkscape:connector-curvature="0" style="fill: rgb(44, 44, 43); stroke: none;"/>
    <path d="m 6.7856,937.757 c 11.6548,54.069 -6.1108,103.763 -39.6787,111.003 -33.5654,7.23 -70.2249,-30.74 -81.8779,-84.804 -11.653,-54.068 6.112,-103.764 39.6792,-110.997 33.5669,-7.236 70.2246,30.729 81.8774,84.798 z" id="path3029" inkscape:connector-curvature="0" style="fill: rgb(44, 44, 43); stroke: none;"/>
    <path d="m 49.2676,937.803 c -11.6446,54.068 6.1084,103.767 39.6738,110.997 33.5676,7.24 70.2256,-30.73 81.8776,-84.797 11.654,-54.069 -6.109,-103.765 -39.678,-110.998 -33.5678,-7.234 -70.225,30.729 -81.8734,84.798 z" id="path3031" inkscape:connector-curvature="0" style="fill: rgb(44, 44, 43); stroke: none;"/>
    <path d="m -35.2275,1118.5 c -8.1924,14.15 -46.1563,60.99 -72.4145,76.97 -26.256,15.98 -58.792,39.38 -53.332,93.11 5.457,53.74 60.575,76.74 96.8597,74.7 36.2867,-2.03 104.6993,-8.71 153.543,-1.94 48.8413,6.77 110.4863,1.64 124.9223,-49.81 14.436,-51.45 -17.85,-84.23 -43.044,-102.83 -25.193,-18.59 -67.265,-74.2 -80.2269,-99.73 -12.96,-25.52 -78.9268,-72.26 -126.3076,9.53 z" id="path3033" inkscape:connector-curvature="0" style="fill: rgb(44, 44, 43); stroke: none;"/>
  </g>
</svg></g><g transform="translate(105.99,&#10;                                529.96) rotate(180, 52.99555555555555, 52.99555555555555)"><svg xmlns="http://www.w3.org/2000/svg" id="Layer_1" data-name="Layer 1" viewBox="0 0 100 100" width="105.9911111111111" height="105.9911111111111"><path d="M50,100h0A50,50,0,0,1,0,50V0H100V50A50,50,0,0,1,50,100Z" fill="#D5D5D5"/></svg></g><g transform="translate(317.97,&#10;                                317.97) rotate(180, 52.99555555555555, 52.99555555555555)"><svg xmlns="http://www.w3.org/2000/svg" id="Layer_1" data-name="Layer 1" viewBox="0 0 100 100" width="105.9911111111111" height="105.9911111111111"><path d="M38.825,3c0,11.749,22.35,11.749,22.35,23.5s-22.35,11.745-22.35,23.49,22.35,11.753,22.35,23.506S38.825,85.247,38.825,97" fill="none" stroke="#3960d4" stroke-linecap="round" stroke-linejoin="round" stroke-width="6"/></svg></g><g transform="translate(211.98,&#10;                                423.96) rotate(180, 52.99555555555555, 52.99555555555555)"><svg xmlns="http://www.w3.org/2000/svg" id="Layer_1" data-name="Layer 1" viewBox="0 0 100 100" width="105.9911111111111" height="105.9911111111111"><path d="M38.825,3c0,11.749,22.35,11.749,22.35,23.5s-22.35,11.745-22.35,23.49,22.35,11.753,22.35,23.506S38.825,85.247,38.825,97" fill="none" stroke="#3960d4" stroke-linecap="round" stroke-linejoin="round" stroke-width="6"/></svg></g><g transform="translate(211.98,&#10;                                529.96) rotate(0, 52.99555555555555, 52.99555555555555)"><svg xmlns="http://www.w3.org/2000/svg" id="Layer_1" data-name="Layer 1" viewBox="0 0 100 100" width="105.9911111111111" height="105.9911111111111"><path d="M50,100h0A50,50,0,0,1,0,50V0H100V50A50,50,0,0,1,50,100Z" fill="#D5D5D5"/></svg></g><g transform="translate(317.97,&#10;                                529.96) rotate(0, 52.99555555555555, 52.99555555555555)"><svg xmlns:dc="http://purl.org/dc/elements/1.1/" xmlns:cc="http://creativecommons.org/ns#" xmlns:rdf="http://www.w3.org/1999/02/22-rdf-syntax-ns#" xmlns:svg="http://www.w3.org/2000/svg" xmlns="http://www.w3.org/2000/svg" xmlns:sodipodi="http://sodipodi.sourceforge.net/DTD/sodipodi-0.dtd" xmlns:inkscape="http://www.inkscape.org/namespaces/inkscape" width="105.9911111111111" height="105.9911111111111" viewBox="0 0 595.276 841.89" fill-rule="evenodd" id="svg3021" version="1.1" inkscape:version="0.48.4 r9939" sodipodi:docname="PawPrint4.ai">
  <metadata id="metadata3039">
    <rdf>
      <work rdf:about="">
        <format>image/svg+xml</format>
        <type rdf:resource="http://purl.org/dc/dcmitype/StillImage"/>
        <title/>
      </work>
    </rdf>
  </metadata>
  <defs id="defs3037"/>
  <namedview pagecolor="#ffffff" bordercolor="#666666" borderopacity="1" objecttolerance="10" gridtolerance="10" guidetolerance="10" inkscape:pageopacity="0" inkscape:pageshadow="2" inkscape:window-width="1024" inkscape:window-height="708" id="namedview3035" showgrid="false" inkscape:zoom="0.46846973" inkscape:cx="372.04749" inkscape:cy="433.62355" inkscape:window-x="-4" inkscape:window-y="-4" inkscape:window-maximized="1" inkscape:current-layer="svg3021"/>
  <g id="g3023" transform="translate(269.81467,-650.62904)">
    <path d="m -126.267,1038.85 c 22.737,50.44 15.792,102.75 -15.51,116.87 -31.303,14.12 -75.11,-15.31 -97.845,-65.74 -22.737,-50.43 -15.793,-102.745 15.51,-116.863 31.303,-14.114 75.108,15.317 97.845,65.733 z" id="path3025" inkscape:connector-curvature="0" style="fill: rgb(44, 44, 43); stroke: none;"/>
    <path d="m 183.155,1038.85 c -22.738,50.44 -15.793,102.75 15.512,116.87 31.303,14.12 75.106,-15.31 97.846,-65.74 22.734,-50.43 15.789,-102.745 -15.513,-116.863 -31.301,-14.114 -75.108,15.317 -97.845,65.733 z" id="path3027" inkscape:connector-curvature="0" style="fill: rgb(44, 44, 43); stroke: none;"/>
    <path d="m 6.7856,937.757 c 11.6548,54.069 -6.1108,103.763 -39.6787,111.003 -33.5654,7.23 -70.2249,-30.74 -81.8779,-84.804 -11.653,-54.068 6.112,-103.764 39.6792,-110.997 33.5669,-7.236 70.2246,30.729 81.8774,84.798 z" id="path3029" inkscape:connector-curvature="0" style="fill: rgb(44, 44, 43); stroke: none;"/>
    <path d="m 49.2676,937.803 c -11.6446,54.068 6.1084,103.767 39.6738,110.997 33.5676,7.24 70.2256,-30.73 81.8776,-84.797 11.654,-54.069 -6.109,-103.765 -39.678,-110.998 -33.5678,-7.234 -70.225,30.729 -81.8734,84.798 z" id="path3031" inkscape:connector-curvature="0" style="fill: rgb(44, 44, 43); stroke: none;"/>
    <path d="m -35.2275,1118.5 c -8.1924,14.15 -46.1563,60.99 -72.4145,76.97 -26.256,15.98 -58.792,39.38 -53.332,93.11 5.457,53.74 60.575,76.74 96.8597,74.7 36.2867,-2.03 104.6993,-8.71 153.543,-1.94 48.8413,6.77 110.4863,1.64 124.9223,-49.81 14.436,-51.45 -17.85,-84.23 -43.044,-102.83 -25.193,-18.59 -67.265,-74.2 -80.2269,-99.73 -12.96,-25.52 -78.9268,-72.26 -126.3076,9.53 z" id="path3033" inkscape:connector-curvature="0" style="fill: rgb(44, 44, 43); stroke: none;"/>
  </g>
</svg></g><g transform="translate(529.96,&#10;                                317.97) rotate(180, 52.99555555555555, 52.99555555555555)"><svg xmlns="http://www.w3.org/2000/svg" id="Layer_1" data-name="Layer 1" viewBox="0 0 100 100" width="105.9911111111111" height="105.9911111111111"><path d="M100,100A50,50,0,0,0,0,100Z" fill="#6F9535"/></svg></g><g transform="translate(423.96,&#10;                                423.96) rotate(90, 52.99555555555555, 52.99555555555555)"><svg xmlns="http://www.w3.org/2000/svg" id="Layer_1" data-name="Layer 1" viewBox="0 0 100 100" width="105.9911111111111" height="105.9911111111111"><path d="M38.825,3c0,11.749,22.35,11.749,22.35,23.5s-22.35,11.745-22.35,23.49,22.35,11.753,22.35,23.506S38.825,85.247,38.825,97" fill="none" stroke="#3960d4" stroke-linecap="round" stroke-linejoin="round" stroke-width="6"/></svg></g><g transform="translate(423.96,&#10;                                529.96) rotate(0, 52.99555555555555, 52.99555555555555)"><svg xmlns="http://www.w3.org/2000/svg" id="Layer_1" data-name="Layer 1" viewBox="0 0 100 100" width="105.9911111111111" height="105.9911111111111"><path d="M50,100h0A50,50,0,0,1,0,50V0H100V50A50,50,0,0,1,50,100Z" fill="#D5D5D5"/></svg></g><g transform="translate(529.96,&#10;                                529.96) rotate(270, 52.99555555555555, 52.99555555555555)"><svg xmlns:dc="http://purl.org/dc/elements/1.1/" xmlns:cc="http://creativecommons.org/ns#" xmlns:rdf="http://www.w3.org/1999/02/22-rdf-syntax-ns#" xmlns:svg="http://www.w3.org/2000/svg" xmlns="http://www.w3.org/2000/svg" xmlns:sodipodi="http://sodipodi.sourceforge.net/DTD/sodipodi-0.dtd" xmlns:inkscape="http://www.inkscape.org/namespaces/inkscape" width="105.9911111111111" height="105.9911111111111" viewBox="0 0 595.276 841.89" fill-rule="evenodd" id="svg3021" version="1.1" inkscape:version="0.48.4 r9939" sodipodi:docname="PawPrint4.ai">
  <metadata id="metadata3039">
    <rdf>
      <work rdf:about="">
        <format>image/svg+xml</format>
        <type rdf:resource="http://purl.org/dc/dcmitype/StillImage"/>
        <title/>
      </work>
    </rdf>
  </metadata>
  <defs id="defs3037"/>
  <namedview pagecolor="#ffffff" bordercolor="#666666" borderopacity="1" objecttolerance="10" gridtolerance="10" guidetolerance="10" inkscape:pageopacity="0" inkscape:pageshadow="2" inkscape:window-width="1024" inkscape:window-height="708" id="namedview3035" showgrid="false" inkscape:zoom="0.46846973" inkscape:cx="372.04749" inkscape:cy="433.62355" inkscape:window-x="-4" inkscape:window-y="-4" inkscape:window-maximized="1" inkscape:current-layer="svg3021"/>
  <g id="g3023" transform="translate(269.81467,-650.62904)">
    <path d="m -126.267,1038.85 c 22.737,50.44 15.792,102.75 -15.51,116.87 -31.303,14.12 -75.11,-15.31 -97.845,-65.74 -22.737,-50.43 -15.793,-102.745 15.51,-116.863 31.303,-14.114 75.108,15.317 97.845,65.733 z" id="path3025" inkscape:connector-curvature="0" style="fill: rgb(44, 44, 43); stroke: none;"/>
    <path d="m 183.155,1038.85 c -22.738,50.44 -15.793,102.75 15.512,116.87 31.303,14.12 75.106,-15.31 97.846,-65.74 22.734,-50.43 15.789,-102.745 -15.513,-116.863 -31.301,-14.114 -75.108,15.317 -97.845,65.733 z" id="path3027" inkscape:connector-curvature="0" style="fill: rgb(44, 44, 43); stroke: none;"/>
    <path d="m 6.7856,937.757 c 11.6548,54.069 -6.1108,103.763 -39.6787,111.003 -33.5654,7.23 -70.2249,-30.74 -81.8779,-84.804 -11.653,-54.068 6.112,-103.764 39.6792,-110.997 33.5669,-7.236 70.2246,30.729 81.8774,84.798 z" id="path3029" inkscape:connector-curvature="0" style="fill: rgb(44, 44, 43); stroke: none;"/>
    <path d="m 49.2676,937.803 c -11.6446,54.068 6.1084,103.767 39.6738,110.997 33.5676,7.24 70.2256,-30.73 81.8776,-84.797 11.654,-54.069 -6.109,-103.765 -39.678,-110.998 -33.5678,-7.234 -70.225,30.729 -81.8734,84.798 z" id="path3031" inkscape:connector-curvature="0" style="fill: rgb(44, 44, 43); stroke: none;"/>
    <path d="m -35.2275,1118.5 c -8.1924,14.15 -46.1563,60.99 -72.4145,76.97 -26.256,15.98 -58.792,39.38 -53.332,93.11 5.457,53.74 60.575,76.74 96.8597,74.7 36.2867,-2.03 104.6993,-8.71 153.543,-1.94 48.8413,6.77 110.4863,1.64 124.9223,-49.81 14.436,-51.45 -17.85,-84.23 -43.044,-102.83 -25.193,-18.59 -67.265,-74.2 -80.2269,-99.73 -12.96,-25.52 -78.9268,-72.26 -126.3076,9.53 z" id="path3033" inkscape:connector-curvature="0" style="fill: rgb(44, 44, 43); stroke: none;"/>
  </g>
</svg></g><g transform="translate(635.95,&#10;                                423.96) rotate(90, 52.99555555555555, 52.99555555555555)"><svg xmlns="http://www.w3.org/2000/svg" id="Layer_1" data-name="Layer 1" viewBox="0 0 100 100" width="105.9911111111111" height="105.9911111111111"><path d="M38.825,3c0,11.749,22.35,11.749,22.35,23.5s-22.35,11.745-22.35,23.49,22.35,11.753,22.35,23.506S38.825,85.247,38.825,97" fill="none" stroke="#3960d4" stroke-linecap="round" stroke-linejoin="round" stroke-width="6"/></svg></g><g transform="translate(741.94,&#10;                                529.96) rotate(90, 52.99555555555555, 52.99555555555555)"><svg xmlns="http://www.w3.org/2000/svg" id="Layer_1" data-name="Layer 1" viewBox="0 0 100 100" width="105.9911111111111" height="105.9911111111111"><path d="M50,100h0A50,50,0,0,1,0,50V0H100V50A50,50,0,0,1,50,100Z" fill="#D5D5D5"/></svg></g><g transform="translate(953.92,&#10;                                317.97) rotate(180, 52.99555555555555, 52.99555555555555)"><svg xmlns="http://www.w3.org/2000/svg" id="Layer_1" data-name="Layer 1" viewBox="0 0 100 100" width="105.9911111111111" height="105.9911111111111"><path d="M100,100A50,50,0,0,0,0,100Z" fill="#6F9535"/></svg></g><g transform="translate(953.92,&#10;                                529.96) rotate(90, 52.99555555555555, 52.99555555555555)"><svg xmlns:dc="http://purl.org/dc/elements/1.1/" xmlns:cc="http://creativecommons.org/ns#" xmlns:rdf="http://www.w3.org/1999/02/22-rdf-syntax-ns#" xmlns:svg="http://www.w3.org/2000/svg" xmlns="http://www.w3.org/2000/svg" xmlns:sodipodi="http://sodipodi.sourceforge.net/DTD/sodipodi-0.dtd" xmlns:inkscape="http://www.inkscape.org/namespaces/inkscape" width="105.9911111111111" height="105.9911111111111" viewBox="0 0 595.276 841.89" fill-rule="evenodd" id="svg3021" version="1.1" inkscape:version="0.48.4 r9939" sodipodi:docname="PawPrint4.ai">
  <metadata id="metadata3039">
    <rdf>
      <work rdf:about="">
        <format>image/svg+xml</format>
        <type rdf:resource="http://purl.org/dc/dcmitype/StillImage"/>
        <title/>
      </work>
    </rdf>
  </metadata>
  <defs id="defs3037"/>
  <namedview pagecolor="#ffffff" bordercolor="#666666" borderopacity="1" objecttolerance="10" gridtolerance="10" guidetolerance="10" inkscape:pageopacity="0" inkscape:pageshadow="2" inkscape:window-width="1024" inkscape:window-height="708" id="namedview3035" showgrid="false" inkscape:zoom="0.46846973" inkscape:cx="372.04749" inkscape:cy="433.62355" inkscape:window-x="-4" inkscape:window-y="-4" inkscape:window-maximized="1" inkscape:current-layer="svg3021"/>
  <g id="g3023" transform="translate(269.81467,-650.62904)">
    <path d="m -126.267,1038.85 c 22.737,50.44 15.792,102.75 -15.51,116.87 -31.303,14.12 -75.11,-15.31 -97.845,-65.74 -22.737,-50.43 -15.793,-102.745 15.51,-116.863 31.303,-14.114 75.108,15.317 97.845,65.733 z" id="path3025" inkscape:connector-curvature="0" style="fill: rgb(44, 44, 43); stroke: none;"/>
    <path d="m 183.155,1038.85 c -22.738,50.44 -15.793,102.75 15.512,116.87 31.303,14.12 75.106,-15.31 97.846,-65.74 22.734,-50.43 15.789,-102.745 -15.513,-116.863 -31.301,-14.114 -75.108,15.317 -97.845,65.733 z" id="path3027" inkscape:connector-curvature="0" style="fill: rgb(44, 44, 43); stroke: none;"/>
    <path d="m 6.7856,937.757 c 11.6548,54.069 -6.1108,103.763 -39.6787,111.003 -33.5654,7.23 -70.2249,-30.74 -81.8779,-84.804 -11.653,-54.068 6.112,-103.764 39.6792,-110.997 33.5669,-7.236 70.2246,30.729 81.8774,84.798 z" id="path3029" inkscape:connector-curvature="0" style="fill: rgb(44, 44, 43); stroke: none;"/>
    <path d="m 49.2676,937.803 c -11.6446,54.068 6.1084,103.767 39.6738,110.997 33.5676,7.24 70.2256,-30.73 81.8776,-84.797 11.654,-54.069 -6.109,-103.765 -39.678,-110.998 -33.5678,-7.234 -70.225,30.729 -81.8734,84.798 z" id="path3031" inkscape:connector-curvature="0" style="fill: rgb(44, 44, 43); stroke: none;"/>
    <path d="m -35.2275,1118.5 c -8.1924,14.15 -46.1563,60.99 -72.4145,76.97 -26.256,15.98 -58.792,39.38 -53.332,93.11 5.457,53.74 60.575,76.74 96.8597,74.7 36.2867,-2.03 104.6993,-8.71 153.543,-1.94 48.8413,6.77 110.4863,1.64 124.9223,-49.81 14.436,-51.45 -17.85,-84.23 -43.044,-102.83 -25.193,-18.59 -67.265,-74.2 -80.2269,-99.73 -12.96,-25.52 -78.9268,-72.26 -126.3076,9.53 z" id="path3033" inkscape:connector-curvature="0" style="fill: rgb(44, 44, 43); stroke: none;"/>
  </g>
</svg></g><g transform="translate(1165.90,&#10;                                317.97) rotate(0, 52.99555555555555, 52.99555555555555)"><svg xmlns="http://www.w3.org/2000/svg" id="Layer_1" data-name="Layer 1" viewBox="0 0 100 100" width="105.9911111111111" height="105.9911111111111"><path d="M38.825,3c0,11.749,22.35,11.749,22.35,23.5s-22.35,11.745-22.35,23.49,22.35,11.753,22.35,23.506S38.825,85.247,38.825,97" fill="none" stroke="#3960d4" stroke-linecap="round" stroke-linejoin="round" stroke-width="6"/></svg></g><g transform="translate(1059.91,&#10;                                423.96) rotate(0, 52.99555555555555, 52.99555555555555)"><svg xmlns:dc="http://purl.org/dc/elements/1.1/" xmlns:cc="http://creativecommons.org/ns#" xmlns:rdf="http://www.w3.org/1999/02/22-rdf-syntax-ns#" xmlns:svg="http://www.w3.org/2000/svg" xmlns="http://www.w3.org/2000/svg" xmlns:sodipodi="http://sodipodi.sourceforge.net/DTD/sodipodi-0.dtd" xmlns:inkscape="http://www.inkscape.org/namespaces/inkscape" width="105.9911111111111" height="105.9911111111111" viewBox="0 0 595.276 841.89" fill-rule="evenodd" id="svg3021" version="1.1" inkscape:version="0.48.4 r9939" sodipodi:docname="PawPrint4.ai">
  <metadata id="metadata3039">
    <rdf>
      <work rdf:about="">
        <format>image/svg+xml</format>
        <type rdf:resource="http://purl.org/dc/dcmitype/StillImage"/>
        <title/>
      </work>
    </rdf>
  </metadata>
  <defs id="defs3037"/>
  <namedview pagecolor="#ffffff" bordercolor="#666666" borderopacity="1" objecttolerance="10" gridtolerance="10" guidetolerance="10" inkscape:pageopacity="0" inkscape:pageshadow="2" inkscape:window-width="1024" inkscape:window-height="708" id="namedview3035" showgrid="false" inkscape:zoom="0.46846973" inkscape:cx="372.04749" inkscape:cy="433.62355" inkscape:window-x="-4" inkscape:window-y="-4" inkscape:window-maximized="1" inkscape:current-layer="svg3021"/>
  <g id="g3023" transform="translate(269.81467,-650.62904)">
    <path d="m -126.267,1038.85 c 22.737,50.44 15.792,102.75 -15.51,116.87 -31.303,14.12 -75.11,-15.31 -97.845,-65.74 -22.737,-50.43 -15.793,-102.745 15.51,-116.863 31.303,-14.114 75.108,15.317 97.845,65.733 z" id="path3025" inkscape:connector-curvature="0" style="fill: rgb(44, 44, 43); stroke: none;"/>
    <path d="m 183.155,1038.85 c -22.738,50.44 -15.793,102.75 15.512,116.87 31.303,14.12 75.106,-15.31 97.846,-65.74 22.734,-50.43 15.789,-102.745 -15.513,-116.863 -31.301,-14.114 -75.108,15.317 -97.845,65.733 z" id="path3027" inkscape:connector-curvature="0" style="fill: rgb(44, 44, 43); stroke: none;"/>
    <path d="m 6.7856,937.757 c 11.6548,54.069 -6.1108,103.763 -39.6787,111.003 -33.5654,7.23 -70.2249,-30.74 -81.8779,-84.804 -11.653,-54.068 6.112,-103.764 39.6792,-110.997 33.5669,-7.236 70.2246,30.729 81.8774,84.798 z" id="path3029" inkscape:connector-curvature="0" style="fill: rgb(44, 44, 43); stroke: none;"/>
    <path d="m 49.2676,937.803 c -11.6446,54.068 6.1084,103.767 39.6738,110.997 33.5676,7.24 70.2256,-30.73 81.8776,-84.797 11.654,-54.069 -6.109,-103.765 -39.678,-110.998 -33.5678,-7.234 -70.225,30.729 -81.8734,84.798 z" id="path3031" inkscape:connector-curvature="0" style="fill: rgb(44, 44, 43); stroke: none;"/>
    <path d="m -35.2275,1118.5 c -8.1924,14.15 -46.1563,60.99 -72.4145,76.97 -26.256,15.98 -58.792,39.38 -53.332,93.11 5.457,53.74 60.575,76.74 96.8597,74.7 36.2867,-2.03 104.6993,-8.71 153.543,-1.94 48.8413,6.77 110.4863,1.64 124.9223,-49.81 14.436,-51.45 -17.85,-84.23 -43.044,-102.83 -25.193,-18.59 -67.265,-74.2 -80.2269,-99.73 -12.96,-25.52 -78.9268,-72.26 -126.3076,9.53 z" id="path3033" inkscape:connector-curvature="0" style="fill: rgb(44, 44, 43); stroke: none;"/>
  </g>
</svg></g><g transform="translate(1059.91,&#10;                                529.96) rotate(180, 52.99555555555555, 52.99555555555555)"><svg xmlns="http://www.w3.org/2000/svg" id="Layer_1" data-name="Layer 1" viewBox="0 0 100 100" width="105.9911111111111" height="105.9911111111111"><path d="M50,100h0A50,50,0,0,1,0,50V0H100V50A50,50,0,0,1,50,100Z" fill="#D5D5D5"/></svg></g></g><g><g transform="translate(105.99,&#10;                                635.95) rotate(0, 52.99555555555555, 52.99555555555555)"><svg xmlns="http://www.w3.org/2000/svg" id="Layer_1" data-name="Layer 1" viewBox="0 0 100 100" width="105.9911111111111" height="105.9911111111111"><path d="M100,100A50,50,0,0,0,0,100Z" fill="#6F9535"/></svg></g><g transform="translate(0.00,&#10;                                847.93) rotate(0, 52.99555555555555, 52.99555555555555)"><svg xmlns="http://www.w3.org/2000/svg" id="Layer_1" data-name="Layer 1" viewBox="0 0 100 100" width="105.9911111111111" height="105.9911111111111"><path d="M50,100h0A50,50,0,0,1,0,50V0H100V50A50,50,0,0,1,50,100Z" fill="#D5D5D5"/></svg></g><g transform="translate(105.99,&#10;                                847.93) rotate(0, 52.99555555555555, 52.99555555555555)"><svg xmlns="http://www.w3.org/2000/svg" id="Layer_1" data-name="Layer 1" viewBox="0 0 100 100" width="105.9911111111111" height="105.9911111111111"><path d="M38.825,3c0,11.749,22.35,11.749,22.35,23.5s-22.35,11.745-22.35,23.49,22.35,11.753,22.35,23.506S38.825,85.247,38.825,97" fill="none" stroke="#3960d4" stroke-linecap="round" stroke-linejoin="round" stroke-width="6"/></svg></g><g transform="translate(211.98,&#10;                                741.94) rotate(270, 52.99555555555555, 52.99555555555555)"><svg xmlns="http://www.w3.org/2000/svg" id="Layer_1" data-name="Layer 1" viewBox="0 0 100 100" width="105.9911111111111" height="105.9911111111111"><path d="M38.825,3c0,11.749,22.35,11.749,22.35,23.5s-22.35,11.745-22.35,23.49,22.35,11.753,22.35,23.506S38.825,85.247,38.825,97" fill="none" stroke="#3960d4" stroke-linecap="round" stroke-linejoin="round" stroke-width="6"/></svg></g><g transform="translate(317.97,&#10;                                847.93) rotate(0, 52.99555555555555, 52.99555555555555)"><svg xmlns="http://www.w3.org/2000/svg" id="Layer_1" data-name="Layer 1" viewBox="0 0 100 100" width="105.9911111111111" height="105.9911111111111"><path d="M38.825,3c0,11.749,22.35,11.749,22.35,23.5s-22.35,11.745-22.35,23.49,22.35,11.753,22.35,23.506S38.825,85.247,38.825,97" fill="none" stroke="#3960d4" stroke-linecap="round" stroke-linejoin="round" stroke-width="6"/></svg></g><g transform="translate(529.96,&#10;                                635.95) rotate(180, 52.99555555555555, 52.99555555555555)"><svg xmlns="http://www.w3.org/2000/svg" id="Layer_1" data-name="Layer 1" viewBox="0 0 100 100" width="105.9911111111111" height="105.9911111111111"><path d="M100,100A50,50,0,0,0,0,100Z" fill="#6F9535"/></svg></g><g transform="translate(423.96,&#10;                                847.93) rotate(180, 52.99555555555555, 52.99555555555555)"><svg xmlns="http://www.w3.org/2000/svg" id="Layer_1" data-name="Layer 1" viewBox="0 0 100 100" width="105.9911111111111" height="105.9911111111111"><path d="M38.825,3c0,11.749,22.35,11.749,22.35,23.5s-22.35,11.745-22.35,23.49,22.35,11.753,22.35,23.506S38.825,85.247,38.825,97" fill="none" stroke="#3960d4" stroke-linecap="round" stroke-linejoin="round" stroke-width="6"/></svg></g><g transform="translate(529.96,&#10;                                847.93) rotate(180, 52.99555555555555, 52.99555555555555)"><svg xmlns:dc="http://purl.org/dc/elements/1.1/" xmlns:cc="http://creativecommons.org/ns#" xmlns:rdf="http://www.w3.org/1999/02/22-rdf-syntax-ns#" xmlns:svg="http://www.w3.org/2000/svg" xmlns="http://www.w3.org/2000/svg" xmlns:sodipodi="http://sodipodi.sourceforge.net/DTD/sodipodi-0.dtd" xmlns:inkscape="http://www.inkscape.org/namespaces/inkscape" width="105.9911111111111" height="105.9911111111111" viewBox="0 0 595.276 841.89" fill-rule="evenodd" id="svg3021" version="1.1" inkscape:version="0.48.4 r9939" sodipodi:docname="PawPrint4.ai">
  <metadata id="metadata3039">
    <rdf>
      <work rdf:about="">
        <format>image/svg+xml</format>
        <type rdf:resource="http://purl.org/dc/dcmitype/StillImage"/>
        <title/>
      </work>
    </rdf>
  </metadata>
  <defs id="defs3037"/>
  <namedview pagecolor="#ffffff" bordercolor="#666666" borderopacity="1" objecttolerance="10" gridtolerance="10" guidetolerance="10" inkscape:pageopacity="0" inkscape:pageshadow="2" inkscape:window-width="1024" inkscape:window-height="708" id="namedview3035" showgrid="false" inkscape:zoom="0.46846973" inkscape:cx="372.04749" inkscape:cy="433.62355" inkscape:window-x="-4" inkscape:window-y="-4" inkscape:window-maximized="1" inkscape:current-layer="svg3021"/>
  <g id="g3023" transform="translate(269.81467,-650.62904)">
    <path d="m -126.267,1038.85 c 22.737,50.44 15.792,102.75 -15.51,116.87 -31.303,14.12 -75.11,-15.31 -97.845,-65.74 -22.737,-50.43 -15.793,-102.745 15.51,-116.863 31.303,-14.114 75.108,15.317 97.845,65.733 z" id="path3025" inkscape:connector-curvature="0" style="fill: rgb(44, 44, 43); stroke: none;"/>
    <path d="m 183.155,1038.85 c -22.738,50.44 -15.793,102.75 15.512,116.87 31.303,14.12 75.106,-15.31 97.846,-65.74 22.734,-50.43 15.789,-102.745 -15.513,-116.863 -31.301,-14.114 -75.108,15.317 -97.845,65.733 z" id="path3027" inkscape:connector-curvature="0" style="fill: rgb(44, 44, 43); stroke: none;"/>
    <path d="m 6.7856,937.757 c 11.6548,54.069 -6.1108,103.763 -39.6787,111.003 -33.5654,7.23 -70.2249,-30.74 -81.8779,-84.804 -11.653,-54.068 6.112,-103.764 39.6792,-110.997 33.5669,-7.236 70.2246,30.729 81.8774,84.798 z" id="path3029" inkscape:connector-curvature="0" style="fill: rgb(44, 44, 43); stroke: none;"/>
    <path d="m 49.2676,937.803 c -11.6446,54.068 6.1084,103.767 39.6738,110.997 33.5676,7.24 70.2256,-30.73 81.8776,-84.797 11.654,-54.069 -6.109,-103.765 -39.678,-110.998 -33.5678,-7.234 -70.225,30.729 -81.8734,84.798 z" id="path3031" inkscape:connector-curvature="0" style="fill: rgb(44, 44, 43); stroke: none;"/>
    <path d="m -35.2275,1118.5 c -8.1924,14.15 -46.1563,60.99 -72.4145,76.97 -26.256,15.98 -58.792,39.38 -53.332,93.11 5.457,53.74 60.575,76.74 96.8597,74.7 36.2867,-2.03 104.6993,-8.71 153.543,-1.94 48.8413,6.77 110.4863,1.64 124.9223,-49.81 14.436,-51.45 -17.85,-84.23 -43.044,-102.83 -25.193,-18.59 -67.265,-74.2 -80.2269,-99.73 -12.96,-25.52 -78.9268,-72.26 -126.3076,9.53 z" id="path3033" inkscape:connector-curvature="0" style="fill: rgb(44, 44, 43); stroke: none;"/>
  </g>
</svg></g><g transform="translate(741.94,&#10;                                635.95) rotate(90, 52.99555555555555, 52.99555555555555)"><svg xmlns:dc="http://purl.org/dc/elements/1.1/" xmlns:cc="http://creativecommons.org/ns#" xmlns:rdf="http://www.w3.org/1999/02/22-rdf-syntax-ns#" xmlns:svg="http://www.w3.org/2000/svg" xmlns="http://www.w3.org/2000/svg" xmlns:sodipodi="http://sodipodi.sourceforge.net/DTD/sodipodi-0.dtd" xmlns:inkscape="http://www.inkscape.org/namespaces/inkscape" width="105.9911111111111" height="105.9911111111111" viewBox="0 0 595.276 841.89" fill-rule="evenodd" id="svg3021" version="1.1" inkscape:version="0.48.4 r9939" sodipodi:docname="PawPrint4.ai">
  <metadata id="metadata3039">
    <rdf>
      <work rdf:about="">
        <format>image/svg+xml</format>
        <type rdf:resource="http://purl.org/dc/dcmitype/StillImage"/>
        <title/>
      </work>
    </rdf>
  </metadata>
  <defs id="defs3037"/>
  <namedview pagecolor="#ffffff" bordercolor="#666666" borderopacity="1" objecttolerance="10" gridtolerance="10" guidetolerance="10" inkscape:pageopacity="0" inkscape:pageshadow="2" inkscape:window-width="1024" inkscape:window-height="708" id="namedview3035" showgrid="false" inkscape:zoom="0.46846973" inkscape:cx="372.04749" inkscape:cy="433.62355" inkscape:window-x="-4" inkscape:window-y="-4" inkscape:window-maximized="1" inkscape:current-layer="svg3021"/>
  <g id="g3023" transform="translate(269.81467,-650.62904)">
    <path d="m -126.267,1038.85 c 22.737,50.44 15.792,102.75 -15.51,116.87 -31.303,14.12 -75.11,-15.31 -97.845,-65.74 -22.737,-50.43 -15.793,-102.745 15.51,-116.863 31.303,-14.114 75.108,15.317 97.845,65.733 z" id="path3025" inkscape:connector-curvature="0" style="fill: rgb(44, 44, 43); stroke: none;"/>
    <path d="m 183.155,1038.85 c -22.738,50.44 -15.793,102.75 15.512,116.87 31.303,14.12 75.106,-15.31 97.846,-65.74 22.734,-50.43 15.789,-102.745 -15.513,-116.863 -31.301,-14.114 -75.108,15.317 -97.845,65.733 z" id="path3027" inkscape:connector-curvature="0" style="fill: rgb(44, 44, 43); stroke: none;"/>
    <path d="m 6.7856,937.757 c 11.6548,54.069 -6.1108,103.763 -39.6787,111.003 -33.5654,7.23 -70.2249,-30.74 -81.8779,-84.804 -11.653,-54.068 6.112,-103.764 39.6792,-110.997 33.5669,-7.236 70.2246,30.729 81.8774,84.798 z" id="path3029" inkscape:connector-curvature="0" style="fill: rgb(44, 44, 43); stroke: none;"/>
    <path d="m 49.2676,937.803 c -11.6446,54.068 6.1084,103.767 39.6738,110.997 33.5676,7.24 70.2256,-30.73 81.8776,-84.797 11.654,-54.069 -6.109,-103.765 -39.678,-110.998 -33.5678,-7.234 -70.225,30.729 -81.8734,84.798 z" id="path3031" inkscape:connector-curvature="0" style="fill: rgb(44, 44, 43); stroke: none;"/>
    <path d="m -35.2275,1118.5 c -8.1924,14.15 -46.1563,60.99 -72.4145,76.97 -26.256,15.98 -58.792,39.38 -53.332,93.11 5.457,53.74 60.575,76.74 96.8597,74.7 36.2867,-2.03 104.6993,-8.71 153.543,-1.94 48.8413,6.77 110.4863,1.64 124.9223,-49.81 14.436,-51.45 -17.85,-84.23 -43.044,-102.83 -25.193,-18.59 -67.265,-74.2 -80.2269,-99.73 -12.96,-25.52 -78.9268,-72.26 -126.3076,9.53 z" id="path3033" inkscape:connector-curvature="0" style="fill: rgb(44, 44, 43); stroke: none;"/>
  </g>
</svg></g><g transform="translate(635.95,&#10;                                741.94) rotate(0, 52.99555555555555, 52.99555555555555)"><svg xmlns="http://www.w3.org/2000/svg" id="Layer_1" data-name="Layer 1" viewBox="0 0 100 100" width="105.9911111111111" height="105.9911111111111"><path d="M38.825,3c0,11.749,22.35,11.749,22.35,23.5s-22.35,11.745-22.35,23.49,22.35,11.753,22.35,23.506S38.825,85.247,38.825,97" fill="none" stroke="#3960d4" stroke-linecap="round" stroke-linejoin="round" stroke-width="6"/></svg></g><g transform="translate(741.94,&#10;                                847.93) rotate(180, 52.99555555555555, 52.99555555555555)"><svg xmlns="http://www.w3.org/2000/svg" id="Layer_1" data-name="Layer 1" viewBox="0 0 100 100" width="105.9911111111111" height="105.9911111111111"><path d="M50,100h0A50,50,0,0,1,0,50V0H100V50A50,50,0,0,1,50,100Z" fill="#D5D5D5"/></svg></g><g transform="translate(953.92,&#10;                                635.95) rotate(270, 52.99555555555555, 52.99555555555555)"><svg xmlns="http://www.w3.org/2000/svg" id="Layer_1" data-name="Layer 1" viewBox="0 0 100 100" width="105.9911111111111" height="105.9911111111111"><path d="M100,100A50,50,0,0,0,0,100Z" fill="#6F9535"/></svg></g><g transform="translate(1165.90,&#10;                                635.95) rotate(90, 52.99555555555555, 52.99555555555555)"><svg xmlns="http://www.w3.org/2000/svg" id="Layer_1" data-name="Layer 1" viewBox="0 0 100 100" width="105.9911111111111" height="105.9911111111111"><path d="M38.825,3c0,11.749,22.35,11.749,22.35,23.5s-22.35,11.745-22.35,23.49,22.35,11.753,22.35,23.506S38.825,85.247,38.825,97" fill="none" stroke="#3960d4" stroke-linecap="round" stroke-linejoin="round" stroke-width="6"/></svg></g><g transform="translate(1165.90,&#10;                                741.94) rotate(90, 52.99555555555555, 52.99555555555555)"><svg xmlns="http://www.w3.org/2000/svg" id="Layer_1" data-name="Layer 1" viewBox="0 0 100 100" width="105.9911111111111" height="105.9911111111111"><path d="M100,100A50,50,0,0,0,0,100Z" fill="#6F9535"/></svg></g><g transform="translate(1059.91,&#10;                                847.93) rotate(270, 52.99555555555555, 52.99555555555555)"><svg xmlns="http://www.w3.org/2000/svg" id="Layer_1" data-name="Layer 1" viewBox="0 0 100 100" width="105.9911111111111" height="105.9911111111111"><path d="M50,100h0A50,50,0,0,1,0,50V0H100V50A50,50,0,0,1,50,100Z" fill="#D5D5D5"/></svg></g><g transform="translate(1165.90,&#10;                                847.93) rotate(90, 52.99555555555555, 52.99555555555555)"><svg xmlns="http://www.w3.org/2000/svg" id="Layer_1" data-name="Layer 1" viewBox="0 0 100 100" width="105.9911111111111" height="105.9911111111111"><path d="M38.825,3c0,11.749,22.35,11.749,22.35,23.5s-22.35,11.745-22.35,23.49,22.35,11.753,22.35,23.506S38.825,85.247,38.825,97" fill="none" stroke="#3960d4" stroke-linecap="round" stroke-linejoin="round" stroke-width="6"/></svg></g></g></svg>